<?xml version="1.0" encoding="UTF-8" standalone="no"?>
<!-- Created with Inkscape (http://www.inkscape.org/) -->

<svg
   width="152.40677mm"
   height="117.60729mm"
   viewBox="0 0 152.40677 117.60729"
   version="1.1"
   id="svg1"
   xml:space="preserve"
   xmlns="http://www.w3.org/2000/svg"
   xmlns:svg="http://www.w3.org/2000/svg"><defs
     id="defs1" /><g
     id="layer1"
     transform="translate(2.8701793,-82.731572)"><g
       id="g1"
       transform="matrix(0.26458333,0,0,0.26458333,101.71113,145.325)"><path
         d="m 175.66128,103.72642 c -11.3,14.2 -38.8,24.3 -38.8,24.3 l -205.100001,73.6 v -54.3 l 150.9,-53.800004 c 17.1,-6.1 19.800001,-14.8 5.8,-19.4 -13.9,-4.6 -39.1,-3.3 -56.2,2.9 l -100.5,35.500004 V 56.126416 c 23.2,-7.8 47.1,-13.6 75.6999995,-16.8 40.9000005,-4.5 90.9000005,0.6 130.2000015,15.5 44.2,14 49.2,34.7 38,48.900004 z M -48.738721,11.226416 V -127.77359 c 0,-16.3 -3,-31.3 -18.3,-35.6 -11.7,-3.8 -19,7.1 -19,23.4 v 347.90001 l -93.800009,-29.8 v -414.70001 c 39.9,7.4 98.000009,24.9 129.200009,35.4 79.5,27.3 106.4,61.3 106.4,137.800003 0,74.500003 -46.0000005,102.800003 -104.5,74.600003 z M -352.03873,141.62642 c -45.4,-12.8 -53,-39.5 -32.3,-54.800004 19.1,-14.2 51.7,-24.9 51.7,-24.9 l 134.5,-47.8 v 54.5 l -96.8,34.600004 c -17.1,6.1 -19.7,14.8 -5.8,19.4 13.9,4.6 39.1,3.3 56.2,-2.9 l 46.4,-16.9 v 48.8 c -51.6,9.3 -101.4,7.3 -153.9,-10 z"
         id="path1" /></g></g></svg>
