<?xml version="1.0" encoding="UTF-8"?>
<!-- Uploaded to: ICON Repo, www.iconrepo.com, Generator: ICON Repo Mixer Tools -->
<svg width="800px" height="800px" version="1.1" viewBox="144 144 512 512" xmlns="http://www.w3.org/2000/svg">
 <defs>
  <clipPath id="a">
   <path d="m148.09 148.09h503.81v503.81h-503.81z"/>
  </clipPath>
 </defs>
 <g clip-path="url(#a)">
  <path d="m635.11 232.06h-33.586c-4.4531 0-8.7266 1.7695-11.875 4.918-3.1523 3.1484-4.918 7.4219-4.918 11.875v8.3984c0 2.2266-0.88672 4.3594-2.4609 5.9375-1.5742 1.5742-3.7109 2.457-5.9375 2.457h-100.76c-4.6367 0-8.3984-3.7578-8.3984-8.3945v-8.3984c0-4.4531-1.7695-8.7266-4.918-11.875-3.1484-3.1484-7.4219-4.918-11.875-4.918v-41.984c-0.011718-11.133-4.4414-21.801-12.312-29.672s-18.539-12.301-29.672-12.312h-218.32c-11.133 0.011719-21.801 4.4414-29.672 12.312s-12.301 18.539-12.312 29.672v403.05c0.011719 11.133 4.4414 21.801 12.312 29.672s18.539 12.301 29.672 12.312h209.92c0 4.4531 1.7695 8.7266 4.918 11.875 3.1484 3.1484 7.4219 4.918 11.875 4.918h218.32c4.4531 0 8.7266-1.7695 11.875-4.918s4.918-7.4219 4.918-11.875v-386.25c0-4.4531-1.7695-8.7266-4.918-11.875-3.1484-3.1484-7.4219-4.918-11.875-4.918zm-235.11 386.25h-209.92c-6.6797 0-13.09-2.6562-17.812-7.3789s-7.3789-11.133-7.3789-17.812v-403.05c0-6.6797 2.6562-13.09 7.3789-17.812s11.133-7.3789 17.812-7.3789h218.32c6.6836 0 13.09 2.6562 17.812 7.3789 4.7266 4.7227 7.3789 11.133 7.3789 17.812v41.984h-16.793v-33.586c0-4.457-1.7695-8.7266-4.918-11.875-3.1523-3.1523-7.4219-4.9219-11.875-4.9219h-25.191c-4.4531 0-8.7266 1.7695-11.875 4.9219-3.1484 3.1484-4.918 7.418-4.918 11.875v8.3945c0 2.2266-0.88672 4.3633-2.4609 5.9375-1.5742 1.5742-3.7109 2.4609-5.9375 2.4609h-100.76c-4.6367 0-8.3984-3.7617-8.3984-8.3984v-8.3945c0-4.457-1.7656-8.7266-4.918-11.875-3.1484-3.1523-7.4219-4.9219-11.875-4.9219h-25.188c-4.457 0-8.7266 1.7695-11.875 4.9219-3.1523 3.1484-4.9219 7.418-4.9219 11.875v386.25c0 4.4531 1.7695 8.7227 4.9219 11.875 3.1484 3.1484 7.418 4.918 11.875 4.918h201.52zm0-33.586h-201.52v-386.25h25.188v8.3945c0 6.6797 2.6562 13.09 7.3789 17.812 4.7227 4.7227 11.133 7.3789 17.812 7.3789h100.76c6.6797 0 13.09-2.6562 17.812-7.3789 4.7227-4.7227 7.3789-11.133 7.3789-17.812v-8.3945h25.191zm16.793 50.383v-386.26h33.586v8.3984c0 6.6797 2.6562 13.086 7.3789 17.812 4.7227 4.7227 11.133 7.375 17.812 7.375h100.76c6.6797 0 13.09-2.6523 17.812-7.375 4.7227-4.7266 7.3789-11.133 7.3789-17.812v-8.3984h33.586v386.25z"/>
 </g>
 <path d="m357.35 378.95 23.395-23.395c3.1797-3.2969 3.1367-8.5312-0.10547-11.77-3.2383-3.2422-8.4727-3.2852-11.77-0.10547l-22.73 22.73h-17.223l-12.887-19.312v-64.656c0-4.6367-3.7617-8.3945-8.3984-8.3945-4.6367 0-8.3945 3.7578-8.3945 8.3945v64.656l-12.891 19.312h-34.016l-14.332-14.332c-3.2969-3.1836-8.5352-3.1367-11.773 0.10156-3.2383 3.2383-3.2852 8.4766-0.10156 11.77l14.996 14.996 7.5664 37.848-7.5586 37.844-15.004 14.996c-1.6211 1.5664-2.543 3.7148-2.5625 5.9688-0.019531 2.25 0.86719 4.418 2.457 6.0078 1.5938 1.5938 3.7617 2.4805 6.0117 2.4609 2.2539-0.019531 4.4023-0.94531 5.9688-2.5625l15.113-15.113 26.098-6.5156 28.945 36.191 8.0039 39.969-0.003906-0.003906c0.80469 3.9219 4.2656 6.7305 8.2695 6.7109 0.56641 0 1.1289-0.054688 1.6797-0.16797 2.1836-0.44531 4.1016-1.7422 5.3281-3.5977 1.2305-1.8594 1.668-4.1289 1.2227-6.3125l-8.0625-40.305 7.0195-35.133 25.418-6.3477 14.023 7.0117c4.1523 2.0742 9.1953 0.39062 11.27-3.7617 2.0703-4.1523 0.38672-9.1953-3.7617-11.27l-14.797-7.3984-13.629-20.438zm-34.957 63.285c-3.1484 0.78906-5.5586 3.3164-6.1953 6.5l-4.8711 24.316-22.328-27.91c-2.0508-2.5625-5.4062-3.6953-8.5898-2.8984l-20.723 5.1719 5.793-28.969c0.22656-1.0859 0.22656-2.2031 0-3.2891l-6.3789-31.953h31.738c2.8086 0.003906 5.4297-1.3984 6.9844-3.7344l9.8086-14.738 9.8086 14.711c1.5508 2.3477 4.1758 3.7578 6.9844 3.7617h14.945l-6.3828 31.906 0.003907 0.003906c-0.4375 2.1836 0.007812 4.4531 1.2422 6.3047l10.184 15.273z"/>
 <path d="m265.65 198.48h8.3984c4.6367 0 8.3945-3.7617 8.3945-8.3984s-3.7578-8.3984-8.3945-8.3984h-8.3984c-4.6367 0-8.3945 3.7617-8.3945 8.3984s3.7578 8.3984 8.3945 8.3984z"/>
 <path d="m307.63 198.48h25.191c4.6367 0 8.3984-3.7617 8.3984-8.3984s-3.7617-8.3984-8.3984-8.3984h-25.191c-4.6367 0-8.3945 3.7617-8.3945 8.3984s3.7578 8.3984 8.3945 8.3984z"/>
 <path d="m450.38 332.82c2.2266 0 4.3633-0.88672 5.9375-2.4609l16.793-16.793c3.1836-3.2969 3.1367-8.5312-0.10156-11.77-3.2383-3.2422-8.4766-3.2852-11.77-0.10547l-16.797 16.797c-2.3984 2.3984-3.1172 6.0117-1.8164 9.1484 1.2969 3.1367 4.3594 5.1836 7.7539 5.1836z"/>
 <path d="m511.62 301.7-67.176 67.176c-1.6172 1.5664-2.543 3.7148-2.5625 5.9688-0.019531 2.25 0.86719 4.418 2.4609 6.0078 1.5898 1.5938 3.7578 2.4805 6.0078 2.4609 2.2539-0.019532 4.4023-0.94531 5.9688-2.5625l67.176-67.176c3.1797-3.2969 3.1367-8.5312-0.10547-11.77-3.2383-3.2422-8.4727-3.2852-11.77-0.10547z"/>
</svg>