<?xml version="1.0" encoding="UTF-8" standalone="no"?>
<!-- Created with Inkscape (http://www.inkscape.org/) -->

<svg
   width="208.2795mm"
   height="208.28mm"
   viewBox="0 0 208.2795 208.27999"
   version="1.1"
   id="svg1"
   xml:space="preserve"
   xmlns="http://www.w3.org/2000/svg"
   xmlns:svg="http://www.w3.org/2000/svg"><defs
     id="defs1"><clipPath
       id="a"><path
         d="M 148.09,148.09 H 651.9 V 651.9 H 148.09 Z"
         id="path1-1" /></clipPath></defs><g
     id="layer1"
     transform="translate(30.729312,-37.391218)"><g
       id="g1"
       transform="matrix(0.26458333,0,0,0.26458333,101.71113,145.325)"><g
         id="g3"
         transform="matrix(1.5625,0,0,1.5625,-731.95793,-639.33246)"><g
           clip-path="url(#a)"
           id="g2"><path
             id="path2"
             d="M 190.07695 148.092 C 178.94397 148.1037 168.27668 152.53392 160.4057 160.4045 C 152.53472 168.27508 148.1042 178.94277 148.0932 190.07575 L 148.0932 593.12576 C 148.1049 604.25874 152.53512 614.92726 160.4057 622.79826 C 168.27628 630.66924 178.94397 635.09851 190.07695 635.10951 L 399.99695 635.10951 C 399.99695 639.56259 401.76722 643.83611 404.9157 646.98451 C 408.0641 650.13289 412.33762 651.90326 416.7907 651.90326 L 635.1107 651.90326 C 639.5638 651.90326 643.83731 650.13299 646.98571 646.98451 C 650.13409 643.83601 651.90321 639.56259 651.90321 635.10951 L 651.90321 248.8595 C 651.90321 244.40642 650.13419 240.1329 646.98571 236.9845 C 643.83731 233.83612 639.5638 232.067 635.1107 232.067 L 635.10945 232.0595 L 601.52445 232.0595 C 597.07137 232.0595 592.79785 233.82977 589.64945 236.97825 C 586.49717 240.12665 584.7307 244.40017 584.7307 248.85325 L 584.7307 257.252 C 584.7307 259.4786 583.84488 261.6114 582.2707 263.1895 C 580.69652 264.7637 578.5598 265.64575 576.3332 265.64575 L 475.5732 265.64575 C 470.93652 265.64575 467.17445 261.8887 467.17445 257.252 L 467.17445 248.85325 C 467.17445 244.40017 465.4042 240.12665 462.2557 236.97825 C 459.10732 233.82987 454.8338 232.0595 450.3807 232.0595 L 450.3807 190.07575 C 450.369 178.94277 445.94003 168.27548 438.06945 160.4045 C 430.19887 152.53352 419.52993 148.103 408.39695 148.092 L 190.07695 148.092 z M 190.07945 164.87825 L 408.39945 164.87825 C 415.08305 164.87825 421.48997 167.53432 426.21195 172.257 C 430.93855 176.9797 433.5907 183.39052 433.5907 190.0695 L 433.5907 232.05325 L 416.7982 232.05325 L 416.7982 198.467 C 416.7982 194.01002 415.02795 189.7404 411.87945 186.592 C 408.72717 183.4397 404.45755 181.67075 400.00445 181.67075 L 374.81445 181.67075 C 370.36137 181.67075 366.08785 183.4396 362.93945 186.592 C 359.79105 189.7404 358.0207 194.01002 358.0207 198.467 L 358.0207 206.862 C 358.0207 209.0886 357.13363 211.2253 355.55945 212.7995 C 353.98525 214.3737 351.84855 215.2595 349.62195 215.2595 L 248.86195 215.2595 C 244.22525 215.2595 240.46445 211.4987 240.46445 206.862 L 240.46445 198.467 C 240.46445 194.01002 238.6981 189.7404 235.5457 186.592 C 232.3973 183.4397 228.1238 181.67075 223.6707 181.67075 L 198.4832 181.67075 C 194.0262 181.67075 189.7566 183.4396 186.6082 186.592 C 183.4559 189.7404 181.6857 194.01002 181.6857 198.467 L 181.6857 584.71701 C 181.6857 589.17009 183.4558 593.43971 186.6082 596.59201 C 189.7566 599.74039 194.0262 601.50951 198.4832 601.50951 L 400.0032 601.50951 L 399.99945 618.30951 L 190.07945 618.30951 C 183.39977 618.30951 176.99018 615.65344 172.2682 610.93076 C 167.5462 606.20806 164.88945 599.79849 164.88945 593.11951 L 164.88945 190.0695 C 164.88945 183.38982 167.5455 176.979 172.2682 172.257 C 176.99088 167.53502 183.40047 164.87825 190.07945 164.87825 z M 265.64945 181.68325 C 261.01275 181.68325 257.2557 185.44531 257.2557 190.082 C 257.2557 194.7187 261.01275 198.4795 265.64945 198.4795 L 274.0482 198.4795 C 278.6849 198.4795 282.4432 194.7187 282.4432 190.082 C 282.4432 185.44531 278.6849 181.68325 274.0482 181.68325 L 265.64945 181.68325 z M 307.62945 181.68325 C 302.99276 181.68325 299.2357 185.44531 299.2357 190.082 C 299.2357 194.7187 302.99276 198.4795 307.62945 198.4795 L 332.8207 198.4795 C 337.4574 198.4795 341.21945 194.7187 341.21945 190.082 C 341.21945 185.44531 337.4574 181.68325 332.8207 181.68325 L 307.62945 181.68325 z M 198.47945 198.4745 L 223.6682 198.4745 L 223.6682 206.86825 C 223.6682 213.54793 226.32425 219.95877 231.04695 224.68075 C 235.76965 229.40345 242.18047 232.0595 248.85945 232.0595 L 349.61945 232.0595 C 356.29913 232.0595 362.70872 229.40345 367.4307 224.68075 C 372.1534 219.95807 374.80945 213.54723 374.80945 206.86825 L 374.80945 198.4745 L 400.0007 198.4745 L 399.99945 584.72451 L 198.47945 584.72451 L 198.47945 198.4745 z M 416.7932 248.847 L 450.37945 248.847 L 450.37945 257.24575 C 450.37945 263.92545 453.03552 270.33102 457.7582 275.057 C 462.4809 279.7797 468.89047 282.432 475.56945 282.432 L 576.32945 282.432 C 583.00915 282.432 589.41997 279.7797 594.14195 275.057 C 598.86465 270.33042 601.5207 263.92475 601.5207 257.24575 L 601.5207 248.847 L 635.10695 248.847 L 635.10695 635.09701 L 416.7932 635.10701 L 416.7932 248.847 z M 307.6307 274.047 C 302.99401 274.047 299.23695 277.80531 299.23695 282.442 L 299.23695 347.097 L 286.3457 366.4095 L 252.32945 366.4095 L 237.9982 352.077 C 234.7013 348.89341 229.46225 348.94125 226.22445 352.1795 C 222.98615 355.4178 222.93956 360.65611 226.1232 363.9495 L 241.11945 378.9445 L 248.6857 416.79325 L 241.12695 454.637 L 226.1232 469.63325 C 224.5021 471.19965 223.5802 473.34801 223.5607 475.602 C 223.5412 477.852 224.42714 480.01971 226.01695 481.6095 C 227.61075 483.2033 229.77945 484.09036 232.02945 484.07076 C 234.28335 484.05126 236.4317 483.12544 237.9982 481.50825 L 253.1107 466.3945 L 279.20945 459.8795 L 308.15445 496.07076 L 316.1582 536.03951 L 316.1532 536.03576 C 316.95789 539.95765 320.41931 542.76661 324.4232 542.74701 C 324.98961 542.74701 325.5524 542.69153 326.1032 542.57826 C 328.2868 542.13295 330.2042 540.83625 331.4307 538.98076 C 332.6612 537.12136 333.0985 534.85185 332.6532 532.66826 L 324.5907 492.36326 L 331.6107 457.23075 L 357.0282 450.882 L 371.05195 457.8945 C 375.20425 459.9687 380.24725 458.28432 382.32195 454.132 C 384.39225 449.97971 382.70787 444.9367 378.55945 442.862 L 363.7632 435.4645 L 350.13445 415.02575 L 357.34945 378.9495 L 380.74445 355.5545 C 383.92415 352.25761 383.88162 347.0233 380.63945 343.7845 C 377.40116 340.54231 372.16675 340.49978 368.86945 343.6795 L 346.13945 366.4095 L 328.91695 366.4095 L 316.02945 347.097 L 316.02945 282.442 C 316.02945 277.80531 312.2674 274.047 307.6307 274.047 z M 467.14445 299.33575 C 465.01843 299.31719 462.88615 300.10089 461.23945 301.69075 L 444.44195 318.48825 C 442.04355 320.88665 441.3249 324.49907 442.6257 327.63575 C 443.9226 330.77245 446.98497 332.8195 450.37945 332.8195 C 452.60605 332.8195 454.74275 331.93368 456.31695 330.3595 L 473.1107 313.56575 C 476.2943 310.26887 476.24771 305.03455 473.00945 301.79575 C 471.3903 300.17465 469.27049 299.35431 467.14445 299.33575 z M 517.52695 299.3445 C 515.40142 299.32594 513.2681 300.10964 511.61945 301.6995 L 444.44445 368.87575 C 442.82725 370.44215 441.90145 372.59052 441.88195 374.8445 C 441.86245 377.0945 442.74824 379.26222 444.34195 380.852 C 445.93175 382.4458 448.1007 383.33285 450.3507 383.31325 C 452.6046 383.29375 454.75295 382.36794 456.31945 380.75075 L 523.49445 313.5745 C 526.67415 310.27762 526.63162 305.0433 523.38945 301.8045 C 521.77032 300.1834 519.6525 299.36306 517.52695 299.3445 z M 307.6307 364.73075 L 317.43945 379.442 C 318.99025 381.7897 321.61585 383.19935 324.42445 383.20325 L 339.36945 383.20325 L 332.9857 415.1095 L 332.9907 415.11325 C 332.5532 417.29685 332.99775 419.56666 334.23195 421.41825 L 344.4157 436.692 L 322.3932 442.2345 C 319.2448 443.02356 316.8349 445.55091 316.1982 448.7345 L 311.32695 473.05075 L 288.9982 445.14075 C 286.9474 442.57826 283.5918 441.44511 280.4082 442.242 L 259.6857 447.4145 L 265.4782 418.44575 C 265.70476 417.35986 265.70476 416.243 265.4782 415.157 L 259.09945 383.20325 L 290.8382 383.20325 C 293.6468 383.20725 296.26725 381.8055 297.82195 379.4695 L 307.6307 364.73075 z " /></g></g></g></g></svg>
