<?xml version="1.0" encoding="UTF-8" standalone="no"?>
<!-- Created with Inkscape (http://www.inkscape.org/) -->

<svg
   version="1.1"
   id="svg1"
   width="1549.2716"
   height="1374.1827"
   viewBox="0 0 1549.2716 1374.1828"
   sodipodi:docname="hatfield-logo.svg"
   inkscape:version="1.3.2 (091e20e, 2023-11-25, custom)"
   xmlns:inkscape="http://www.inkscape.org/namespaces/inkscape"
   xmlns:sodipodi="http://sodipodi.sourceforge.net/DTD/sodipodi-0.dtd"
   xmlns="http://www.w3.org/2000/svg"
   xmlns:svg="http://www.w3.org/2000/svg">
  <defs
     id="defs1" />
  <sodipodi:namedview
     id="namedview1"
     pagecolor="#505050"
     bordercolor="#ffffff"
     borderopacity="1"
     inkscape:showpageshadow="0"
     inkscape:pageopacity="0"
     inkscape:pagecheckerboard="1"
     inkscape:deskcolor="#505050"
     inkscape:zoom="0.565427"
     inkscape:cx="841.84166"
     inkscape:cy="642.87698"
     inkscape:window-width="1920"
     inkscape:window-height="1017"
     inkscape:window-x="1912"
     inkscape:window-y="-8"
     inkscape:window-maximized="1"
     inkscape:current-layer="g1" />
  <g
     inkscape:groupmode="layer"
     inkscape:label="Image"
     id="g1"
     transform="translate(-14.099156,-5.1993778)">
    <rect
       style="fill:#ffffff;stroke-width:11.594"
       id="rect13"
       width="1547.5031"
       height="1372.4142"
       x="15.867731"
       y="6.9679527"
       ry="102.57735" />
    <path
       id="path1"
       style="fill:#000000"
       d="m 731.63086,1180.8633 c 78.62344,-0.24 82.25284,-0.1701 85,1.6113 6.94723,4.5049 9.3805,10.0773 7.47266,17.1152 -1.3775,5.0815 -5.15383,9.0534 -9.84961,10.3575 v 0 c -4.32176,1.2006 -160.36377,1.2882 -166.52539,0.094 C 641.01944,1208.7386 636,1202.0745 636,1194.4668 c 0,-6.2723 3.58243,-10.7607 9.9082,-12.4141 2.05891,-0.5381 38.65338,-1.0458 85.72266,-1.1894 z" />
    <path
       id="path13"
       style="fill:#000000;stroke-width:0.832548"
       d="m 1484.5635,907.96717 c -0.775,0.3435 -1.582,1.0073 -2.6142,1.9106 -4.9968,4.37252 -10.6087,9.153 -14.0327,11.95344 -9.6149,7.86418 -19.0944,16.08508 -29.2887,25.40089 -4.4619,4.0774 -4.2114,6.0529 1.4492,11.4147 5.0442,4.778 10.3706,10.9024 10.3706,11.9242 0,0.3571 -2.1088,3.0165 -4.6857,5.9091 -7.6456,8.583 -9.3999,14.4396 -6.1739,20.605 2.0646,3.9456 35.275,36.8525 39.1427,38.7847 3.987,1.992 11.4135,1.4087 15.1455,-1.1896 1.5066,-1.049 6.6698,-5.5002 11.4738,-9.8931 4.804,-4.3928 10.2318,-9.2516 12.0619,-10.7964 1.8301,-1.5448 7.0708,-6.268 11.646,-10.4953 4.5752,-4.2273 11.3132,-10.2031 14.9734,-13.2798 18.0127,-15.141 20.643,-20.0557 15.8263,-29.5768 -2.3012,-4.5488 -6.0941,-8.8757 -21.2334,-24.22585 -10.5077,-10.65399 -16.0304,-14.9772 -19.131,-14.9772 -0.9334,0 -3.7856,1.11664 -6.3396,2.48183 -5.867,3.136 -6.0105,3.06793 -17.3423,-8.2478 -6.8948,-6.88511 -8.9231,-8.7331 -11.2479,-7.70261 z" />
    <path
       id="path12"
       style="fill:#000000;stroke-width:0.832548"
       d="m 1406.5024,770.74097 -9.7256,0.29457 -4.6678,3.33297 c -2.567,1.83313 -9.6757,8.06721 -15.7971,13.85427 -10.7099,10.12484 -33.3587,30.07808 -41.9388,36.94584 -6.362,5.09235 -10.2036,8.58117 -17.4527,15.84949 -5.1776,5.19123 -7.0854,7.7745 -8.5265,11.54659 -2.4418,6.39123 -2.3713,11.48496 0.2372,17.09774 3.5932,7.73158 8.3729,13.28329 37.773,43.87704 5.2956,5.51055 14.5852,15.30097 20.6437,21.75543 12.6645,13.49229 16.022,16.09129 22.5429,17.45089 7.5068,1.5652 11.8599,0.4267 19.6802,-5.1475 5.4181,-3.8621 7.406,-5.62598 19.9791,-17.72598 9.0611,-8.71998 15.4816,-14.57564 18.8451,-17.18561 2.8304,-2.19622 11.6635,-9.92518 16.4356,-14.38157 2.0908,-1.95244 7.3581,-6.26409 11.7045,-9.58065 14.0763,-10.74098 17.2926,-15.14456 18.7476,-25.66289 0.6454,-4.66581 -1.2692,-11.78042 -4.4387,-16.49722 -1.2362,-1.83975 -7.1218,-8.33829 -13.079,-14.44015 -15.8398,-16.2244 -30.1609,-32.55721 -40.2589,-45.91294 -5.4795,-7.24734 -11.8871,-12.74013 -16.7524,-14.35878 -3.2648,-1.08622 -6.4386,-1.33895 -13.9514,-1.11154 z" />
    <path
       id="path11"
       style="fill:#000000;stroke-width:0.832548"
       d="m 1279.6234,731.64857 c -3.5081,0.19156 -6.3727,0.62795 -10.5477,1.41587 -21.0974,3.98153 -36.9721,10.84347 -58.3776,25.23649 -17.3468,11.66391 -28.1076,22.10935 -28.1076,27.28543 0,1.91035 2.6979,6.33264 4.9602,8.12899 2.4524,1.94733 5.9755,1.02583 19.3862,-5.0678 23.4695,-10.66432 32.9396,-13.02175 52.319,-13.02592 19.273,-0.005 27.1813,2.42493 40.3109,12.38308 6.9858,5.29838 12.5158,10.82789 16.5493,16.55093 1.3658,1.93791 2.9771,3.53153 3.5809,3.54128 0.9572,0.0155 8.1593,-4.45089 9.2999,-5.76761 0.2288,-0.26407 4.7208,-4.02644 9.9823,-8.36008 5.2614,-4.33365 10.5021,-8.69447 11.6459,-9.69132 1.1438,-0.99686 6.3845,-5.25978 11.646,-9.47163 5.2615,-4.21183 9.9251,-8.42381 10.3641,-9.36095 0.9267,-1.97817 -0.2952,-3.16011 -10.3641,-10.02169 -3.4314,-2.33837 -6.4279,-4.52846 -6.6581,-4.86763 -0.5979,-0.88103 -10.2733,-6.23821 -16.6338,-9.20961 -14.3323,-6.69544 -25.5062,-9.09418 -44.9478,-9.64575 -6.7484,-0.19146 -10.9,-0.24363 -14.408,-0.0521 z" />
    <path
       id="path10"
       style="fill:#000000"
       d="m 135.01953,640.34766 c -55.183499,0.75875 -51.282149,0.0478 -52.955077,9.67187 -0.524009,3.01453 -1.441061,35.60603 -2.039062,72.42578 -1.241184,76.42141 -1.35401,77.7889 -8.066407,98.55469 -5.268377,16.2985 -6.058471,25.01574 -6.666015,73.5 -0.524306,41.8415 0.650832,99.29051 2.742187,134 1.451063,24.0828 7.648863,88.1205 9.96875,103 0.514508,3.3 1.372505,9.825 1.90625,14.5 0.533746,4.675 1.897454,11.4827 3.03125,15.127 1.721738,5.534 2.597697,6.8948 5.310547,8.2578 2.884585,1.4492 8.228518,1.6 47.748047,1.3535 39.46437,-0.2461 44.91449,-0.47 48.1582,-1.9824 4.55946,-2.1256 7.27408,-5.5164 9.25977,-11.5625 1.75639,-5.3479 4.99843,-27.9448 6.55469,-45.6934 0.57872,-6.5999 1.468,-15.375 1.97656,-19.5 0.50856,-4.125 1.20273,-11.5499 1.54297,-16.5 0.34024,-4.95 1.46739,-18.9 2.50586,-31 3.76736,-43.8969 4.50195,-65.57954 4.50195,-133 0,-74.10997 0.42856,-69.05732 -7.87891,-93.05273 -2.48542,-7.17895 -5.02986,-16.17896 -5.65429,-20 -0.72046,-4.40871 -1.38191,-33.25697 -1.81055,-78.94727 -0.761,-81.11804 -0.42052,-77.70703 -7.9082,-79.11328 -2.06113,-0.38715 -25.56465,-0.40567 -52.22852,-0.0391 z" />
    <path
       id="path9"
       style="fill:#000000"
       d="m 129.33008,569.14648 c -49.798206,-0.008 -97.440827,0.22499 -97.73633,0.70313 -0.998718,1.61596 -1.416269,31.61287 -0.464844,33.39062 0.898179,1.67826 6.589914,1.75499 110.658204,1.51368 L 251.5,604.5 v -17 -17 L 240,569.88086 c -8.91798,-0.47959 -60.87172,-0.72653 -110.66992,-0.73438 z" />
    <path
       id="path8"
       style="fill:#000000"
       d="m 158.75,264.91992 c -3.75488,-0.24141 -41.28767,0.28572 -41.58594,0.58399 -0.6071,0.60709 -0.12317,264.78732 0.49219,268.69336 0.53025,3.36573 0.90728,3.73532 4.21289,4.13671 5.8935,0.71564 35.52057,0.17616 36.88086,-0.67187 0.99005,-0.61722 1.25,-29.0503 1.25,-136.7207 0,-108.04316 -0.25652,-135.95759 -1.25,-136.02149 z" />
    <path
       id="path7"
       style="fill:#000000"
       d="m 729.98438,99 c 72.43343,0 84.51362,0.20569 86.98632,1.48438 9.28833,4.80318 9.66978,18.2284 0.70703,24.91015 -2.81108,2.09568 -3.1748,2.10594 -86.5,2.33399 -60.60403,0.16587 -84.22921,-0.0822 -85.67773,-0.89844 -5.45114,-3.07172 -8.91847,-10.1288 -8.27344,-16.8418 0.46323,-4.82095 2.36725,-7.72722 6.45703,-9.85351 C 645.26304,99.313598 669.16,99 729.98438,99 Z" />
    <path
       id="path6"
       style="fill:#000000"
       d="m 137.5,71.523438 c -12.90616,-0.0237 -13.05416,0.0032 -20.60547,3.609374 -16.47351,7.867098 -27.617615,22.989394 -29.910155,40.587888 -1.318446,10.12094 -0.55402,19.65106 5.511719,68.61914 5.551845,44.81948 6.439896,50.84212 7.724606,52.41016 1.61166,1.96708 75.07995,1.79688 76.71875,-0.17773 0.65191,-0.78551 1.78934,-6.52302 2.52735,-12.75 0.73801,-6.227 2.083,-17.39728 2.98828,-24.82227 8.95825,-73.47419 9.05413,-74.60939 7.08789,-83.44727 C 185.54043,97.562071 172.99047,82.002439 156.17773,74.1875 150.97133,71.767442 149.42105,71.545327 137.5,71.523438 Z" />
    <path
       id="path5"
       style="fill:#000000;stroke-width:0.832548"
       d="m 1122.7099,1046.1958 v 85.2528 h 5.7369 l -1.857,-0.2165 c -13.2596,-1.5454 56.6691,-21.2477 63.4874,-27.7834 4.3464,-4.1664 9.9614,-9.4218 12.4778,-11.6784 2.5163,-2.2568 4.7623,-4.2902 4.9911,-4.5194 0.2288,-0.2291 3.5978,-3.22 7.4867,-6.6464 3.8889,-3.4264 9.3168,-8.3298 12.0619,-10.8972 6.0114,-5.6221 12.1327,-11.1053 16.6371,-14.9024 1.8301,-1.5427 7.2579,-6.4347 12.0619,-10.8711 4.8039,-4.4365 10.9805,-10.0582 13.7256,-12.4922 8.6937,-7.7083 17.8374,-15.9351 24.5657,-22.1037 2.5023,-2.2941 6.5543,-5.8562 9.0042,-7.9158 2.45,-2.0595 5.1113,-4.3071 5.9156,-4.9946 0.8042,-0.6874 6.8063,-6.3118 13.3373,-12.4986 6.5309,-6.1868 12.6647,-11.9332 13.6313,-12.7688 7.7938,-6.7379 13.4152,-12.0679 15.2042,-14.4173 l 2.1202,-2.7846 -1.5451,-2.8561 c -1.3966,-2.5836 -9.6391,-11.57928 -33.9858,-37.08904 -16.2964,-17.07482 -18.5753,-19.24106 -20.244,-19.24106 -1.7761,0 -3.3143,1.15403 -13.8735,10.40739 -3.6661,3.21278 -8.7196,7.59297 -11.23,9.73526 -2.5104,2.14229 -5.6868,4.88496 -7.0594,6.09309 -1.3725,1.20812 -4.3405,3.76638 -6.5963,5.68622 -9.7324,8.28301 -33.4118,28.54614 -34.2572,29.31484 -0.5081,0.4621 -2.567,2.3136 -4.5752,4.1157 -6.2653,5.6227 -11.7708,10.6191 -20.3366,18.4534 -4.5485,4.1602 -14.8206,13.2959 -22.8272,20.3022 -15.1557,13.2621 -18.2141,15.9884 -40.5724,36.1614 -6.7997,6.1351 -11.9582,10.3131 -13.4852,11.1543 z" />
    <path
       id="path4"
       style="fill:#000000"
       d="M 737,5.2851562 C 567.10437,5.0582066 469.94765,5.2849248 463.5,5.9257812 c -18.17776,1.8067565 -38.77167,8.5336698 -56,18.2910158 -34.91413,19.773778 -60.71013,54.440453 -70.16211,94.291013 -1.41662,5.97264 -1.71766,15.45191 -2.06836,65.04102 l -0.41015,58.04687 -3.29688,3.49414 c -7.24899,7.68356 -6.92693,4.76469 -6.66211,60.4043 0.20828,43.76201 0.44154,50.43169 1.86719,53.5 0.89578,1.92791 1.88475,3.73086 2.19726,4.00586 0.3125,0.275 1.79714,1.99647 3.30078,3.82617 L 335,370.1543 v 18.22656 18.22656 l -3.56641,3.44727 c -7.77979,7.51842 -7.26169,3.18657 -7.53125,63.0957 l -0.24218,53.64453 3.15039,4.91016 c 1.73286,2.70042 4.28437,5.97569 5.66992,7.27734 L 335,541.34766 v 325.25976 c 0,308.89408 -0.088,325.28618 -1.75,325.80668 -0.9625,0.3015 -6.92501,1.0036 -13.25,1.5605 -95.80342,8.4356 -188.04423,24.026 -243.5,41.1563 -49.234153,15.2083 -68.8207197,30.8477 -60.574219,48.3691 4.671534,9.9256 18.405871,19.2942 42.058594,28.6914 54.687715,21.7273 151.593195,38.6363 288.015625,50.2539 56.73507,4.8315 62.5181,5.2511 117.5,8.5488 66.28553,3.9756 88.13476,4.8465 184,7.3282 28.41065,0.7355 111.75448,0.5671 163,-0.3301 150.04015,-2.6268 252.746,-8.2048 351,-19.0606 44.1491,-4.8779 107.4245,-13.655 133.5,-18.5195 7.425,-1.3851 16.875,-3.1489 21,-3.9199 40.6848,-7.604 86.9065,-21.0012 104.5,-30.2891 29.2771,-15.4556 36.82,-30.936 22.1973,-45.5586 -13.4748,-13.4748 -40.1731,-25.0602 -81.1973,-35.2343 -44.3006,-10.9868 -101.4378,-20.9079 -167,-28.9981 -12.1,-1.4931 -23.125,-3.1344 -24.5,-3.6465 l -2.5,-0.9316 -32.5879,-3.791 h -6.8965 v -102.3145 c -0.1743,0.096 -1.4686,1.2715 -1.539,1.2715 -1.2979,0 -1.4749,-28.5238 -1.4649,-235.75 0.01,-129.66237 0.2923,-237.325 0.6367,-239.25 0.4596,-2.56906 1.9853,-4.66463 5.7383,-7.88086 2.812,-2.40993 6.9148,-6.00993 9.1153,-8 2.2006,-1.99008 5.8006,-5.14016 8,-7 2.1995,-1.85985 6.248,-5.46141 8.998,-8.00195 2.75,-2.54056 9.275,-8.44259 14.5,-13.11719 5.225,-4.6746 9.725,-8.725 10,-9 0.275,-0.275 4.325,-3.875 9,-8 4.675,-4.125 8.7289,-7.725 9.0078,-8 2.4764,-2.44169 16.3372,-15.15188 23.9922,-22 5.225,-4.67427 12.425,-11.21948 16,-14.54492 13.6479,-12.69521 18.6295,-17.27425 22.5,-20.67969 6.2811,-5.52645 19.3274,-13.65209 23.0352,-14.34766 2.2254,-0.4175 7.7161,0.40887 16.1679,2.43555 16.2335,3.89268 22.5961,4.87246 39.5762,6.08594 33.2471,2.376 65.0287,-3.77164 91.7207,-17.74219 6.1953,-3.24258 23.945,-14.00912 25,-15.16406 0.275,-0.30106 3.7124,-3.14474 7.6387,-6.31836 26.0529,-21.05843 46.0846,-51.7822 54.8457,-84.12305 7.5251,-27.77822 7.6838,-66.60803 0.3691,-90.36328 -5.0309,-16.33838 -10.3385,-20.94948 -19.25,-16.7207 -4.0629,1.928 -21.5704,19.31627 -38.1113,37.85351 -8.5993,9.63724 -30.5474,33.76122 -35.5918,39.11914 -21.5992,22.94159 -22.3131,23.60434 -26.4004,24.54297 -6.3785,1.46478 -17.5504,1.02329 -21.6855,-0.85742 -2.0265,-0.92171 -10.3709,-8.20079 -18.543,-16.17578 -20.33,-19.83986 -26.6751,-25.60195 -44.7715,-40.64648 -6.05,-5.02972 -12.081,-10.30487 -13.4023,-11.72461 -3.2692,-3.51284 -5.0157,-13.23034 -5.0567,-28.12891 -0.029,-10.50572 0.2315,-12.43583 2.0918,-15.5 1.9436,-3.20118 10.2073,-13.35207 13.8555,-17.01953 2.7452,-2.7597 14.442,-15.44241 18.4472,-20.00195 2.1641,-2.46361 5.7641,-6.5127 8,-8.99805 8.3471,-9.27849 17.1284,-19.30674 19.0645,-21.77149 1.1,-1.40035 3.8,-4.62642 6,-7.16796 15.7766,-18.22594 21.2017,-25.14563 22.6172,-28.85547 2.3861,-6.25371 -0.1428,-13.38471 -5.3496,-15.08594 -9.2601,-3.02552 -27.7934,-5.36444 -43.2676,-5.46094 -27.6787,-0.1726 -52.3668,5.16983 -73.6875,15.94922 -5.9433,3.00487 -23.9653,13.75842 -26.6035,15.87305 -20.7772,16.65388 -28.5939,24.82595 -39.7695,41.57812 -12.43,18.63233 -19.5143,35.91743 -23.9825,58.51953 -7.5541,38.21239 -4.506,77.64532 8.4981,109.94141 2.2145,5.49999 3.9931,10.9 3.9531,12 -0.041,1.13002 -2.5376,4.13842 -5.7402,6.91602 -3.1175,2.7038 -10.393,9.277 -16.168,14.60742 -5.775,5.3304 -12.7237,11.66821 -15.4414,14.08398 -2.7176,2.41578 -8.2581,7.51943 -12.3125,11.3418 -9.4557,8.91467 -11.1178,10.1035 -11.7012,8.36328 -0.2419,-0.72161 -0.8558,-67.91258 -1.3633,-149.3125 -0.9008,-144.47502 -0.9715,-148.21436 -2.9961,-157 -4.9816,-21.616871 -11.8192,-35.957899 -25.748,-54 C 1078.1268,38.781981 1047.1361,17.775473 1019.5,10.349609 1000.76,5.3141459 1020.1922,5.6634497 737,5.2851562 Z m -8.05078,29.7441408 c 132.40432,0.0025 264.90859,0.339106 270.05078,1.005859 8.5397,1.107282 14.2908,2.781445 25,7.279297 36.1821,15.196366 61.187,44.356723 69.1875,80.685547 l 2.3125,10.5 0.2969,521.5 c 0.2099,369.7312 -0.021,524.8468 -0.791,533 -1.486,15.7304 -4.1314,25.6227 -10.1621,38 -16.2829,33.4182 -47.4183,56.7617 -84.92778,63.6738 -8.76286,1.6148 -27.22046,1.7463 -265.91602,1.918 -146.6709,0.1055 -260.10158,-0.1999 -264.91211,-0.7148 -40.02146,-4.2842 -76.96525,-28.829 -93.24023,-61.9473 -5.79752,-11.7975 -6.68098,-14.2976 -8.89063,-25.1406 l -2.08398,-10.2286 0.0781,-523.0312 c 0.0544,-365.83809 0.40049,-526.32045 1.1543,-533.97852 3.33856,-33.91701 17.00516,-58.299311 45.97656,-82.031249 9.54165,-7.816052 33.02536,-17.472118 47.41797,-19.496093 4.73999,-0.666567 137.0449,-0.996651 269.44922,-0.994141 z m -1.04297,27.857422 C 596.81811,63.050835 465.76135,63.50173 461.5,64.082031 447.02135,66.053702 435.17786,71.586683 422.05859,82.505859 417.07677,86.652232 413,90.377347 413,90.783203 c 0,0.405856 -1.0125,1.880754 -2.25,3.279297 -6.72367,7.59867 -13.76635,22.69202 -16.50781,35.37695 C 392.59842,137.04524 392.5,167.43426 392.5,668 v 530.5 l 2.86523,7.4414 c 8.14441,21.1494 21.25496,37.4082 36.7168,45.5332 16.41047,8.6234 28.33051,11.6528 48.91797,12.4356 28.38374,1.0792 501.85422,0.1946 510.22461,-0.9532 4.24871,-0.5827 10.83329,-2.1159 14.63279,-3.4082 36.2199,-12.3192 59.2171,-39.948 62.0528,-74.5488 0.9633,-11.7552 0.6642,-551.2344 -0.4434,-799.5 -0.5239,-117.40567 -1.0218,-161.19862 -1.8418,-161.73438 -1.5235,-0.99536 -605.37892,-0.97395 -605.99414,0.0215 -0.26779,0.4333 0.97836,3.4708 2.76953,6.75 4.09368,7.49454 31.6931,54.6177 44.7832,76.46289 5.55395,9.2686 17.90644,30.27883 20.57813,35 1.08935,1.925 4.28878,7.47225 7.10937,12.32812 2.82061,4.85587 5.12891,9.03029 5.12891,9.2754 0,0.2451 1.73314,3.24785 3.85156,6.67187 C 554.53687,387.54615 576,424.52104 576,425.6582 c 0,0.16903 1.8,3.24743 4,6.8418 2.2,3.59437 4,6.74182 4,6.99414 0,0.25232 2.76294,5.08194 6.13867,10.73242 3.37573,5.6505 8.26637,14.09844 10.86914,18.77344 2.60278,4.675 5.98761,10.75 7.52149,13.5 1.53388,2.75 3.84131,6.6789 5.1289,8.73047 1.2876,2.05157 2.3418,3.92754 2.3418,4.16992 0,0.24238 2.39888,4.63849 5.33203,9.76953 6.18423,10.81824 22.18676,39.14372 26.0332,46.08008 6.01859,10.85343 8.30565,14.91361 15.90821,28.25 4.38947,7.69999 9.08406,15.8 10.43164,18 1.34759,2.2 3.75423,6.1375 5.34961,8.75 1.59538,2.6125 3.24921,4.74242 3.67383,4.73242 0.42461,-0.01 1.76688,-2.14721 2.98437,-4.75 7.08934,-15.15567 12.90412,-27.90252 24.9668,-54.73242 15.92546,-35.42155 15.64482,-34.81821 38.04101,-81.5 3.56224,-7.42499 10.77231,-22.95001 16.02344,-34.5 5.25114,-11.54999 10.57761,-22.63101 11.83594,-24.625 5.23969,-8.303 11.10464,-9.82978 20.25195,-5.27148 6.69526,3.33639 10.50368,8.11644 9.60156,12.04882 -1.45499,6.34242 -3.94157,12.81027 -9.9375,25.84766 -1.26472,2.75 -13.18195,29.52503 -26.48242,59.5 -26.46392,59.64115 -26.12717,58.90216 -38.07422,83.74023 -4.56081,9.48199 -8.03733,17.49588 -7.72461,17.8086 0.90405,0.90405 6.70236,-1.85738 15.5625,-7.41016 4.51029,-2.82666 8.48351,-5.13867 8.83008,-5.13867 0.34657,0 3.16477,-1.52165 6.26172,-3.38086 3.09695,-1.85921 9.45586,-5.40824 14.13086,-7.88672 4.675,-2.47847 19.07501,-10.24018 32,-17.25 12.92499,-7.00983 29.80001,-15.99879 37.5,-19.97461 38.10727,-19.67629 38.01162,-19.64433 43.93164,-15.1289 3.47,2.64669 7.97717,10.33681 9.06055,15.45898 0.64854,3.0663 0.30877,3.71862 -4.16211,8 -2.67729,2.56382 -9.81003,7.3354 -15.84961,10.60352 -6.0396,3.2681 -12.55547,6.81941 -14.48047,7.89062 -1.925,1.07121 -6.65,3.64487 -10.5,5.71875 -3.85,2.07387 -11.91701,6.51008 -17.92578,9.85938 -6.00878,3.34929 -11.11438,6.08984 -11.3457,6.08984 -0.23131,0 -1.61432,0.83443 -3.07422,1.85547 -3.07205,2.14856 -25.61558,14.88788 -35.1543,19.86523 -3.575,1.86546 -6.88031,3.77053 -7.3457,4.23242 -0.4654,0.46189 29.98603,0.77376 67.66992,0.69336 68.04354,-0.14516 68.53528,-0.13214 71.3457,1.94336 4.10672,3.03285 5.84497,7.10785 5.72656,13.42578 -0.12036,6.4219 -2.18149,10.98419 -6.28515,13.90626 -2.75262,1.96003 -4.22564,2.07735 -25.76563,2.06835 -34.86272,-0.0149 -124.74036,2.11565 -125.66211,2.97852 -0.44869,0.42002 2.02632,2.8829 5.5,5.47461 3.47368,2.59172 7.62401,5.69016 9.22266,6.88476 1.59864,1.1946 6.2699,4.81614 10.38086,8.04688 4.11097,3.23075 12.92836,9.94471 19.59375,14.91992 6.66538,4.97523 12.34414,9.30597 12.61914,9.625 0.6697,0.77693 12.60976,9.61513 28.5,21.0957 19.16911,13.84954 57.40588,42.02777 60,44.2168 0.55,0.46411 6.85001,5.12243 14,10.35156 7.14999,5.22914 13.675,10.05393 14.5,10.72071 0.825,0.66677 12.52501,9.48895 26,19.60547 13.47499,10.11653 24.65065,18.7757 24.83398,19.24218 0.18334,0.46648 0.74889,0.84766 1.25782,0.84766 0.50893,0 2.22641,1.15948 3.8164,2.57617 4.41864,3.93703 27.2976,21.4985 39.3145,30.17774 l 10.7246,7.74609 0.088,50.5 c 0.048,27.77497 0.307,85.8971 0.5761,129.1602 0.3198,51.4391 0.1444,78.8727 -0.5039,79.2734 -1.2208,0.7544 -375.13702,0.5229 -514.1074,-0.3184 L 423.5,1122.5 v -13.834 -13.834 l 283.25,0.125 c 216.27031,0.095 283.25,-0.1541 283.25,-1.0508 0,-1.0867 -8.25183,-17.1476 -9.9707,-19.4062 -0.41858,-0.55 -1.89914,-3.025 -3.28907,-5.5 -1.38992,-2.475 -7.52414,-13.1922 -13.63281,-23.8164 C 956.99876,1034.5594 952,1025.6952 952,1025.4863 c 0,-0.2089 -3.30687,-5.9167 -7.34766,-12.6836 C 934.26609,995.40949 920.5025,971.59765 911.24219,955 909.86131,952.525 908.4028,950.05 908,949.5 c -0.4028,-0.55 -1.85888,-3.025 -3.23633,-5.5 -1.37746,-2.475 -4.81363,-8.47225 -7.63476,-13.32812 C 894.30776,925.81601 892,921.64529 892,921.4043 c 0,-0.24098 -1.94646,-3.69374 -4.32617,-7.67188 -12.4003,-20.72945 -14.09048,-23.67684 -39.69336,-69.23242 -2.55308,-4.54273 -19.09644,-34.17846 -23.72461,-42.5 -1.68241,-3.025 -4.74678,-8.425 -6.80859,-12 -4.97277,-8.62234 -10.97649,-19.22789 -14.71875,-26 -1.67161,-3.025 -5.67027,-10.17008 -8.88477,-15.87695 C 790.62926,742.41617 788,737.57007 788,737.35352 c 0,-0.21655 -1.0542,-2.07148 -2.3418,-4.12305 -2.19937,-3.50434 -3.96197,-6.58234 -10.71289,-18.70117 -1.52289,-2.73381 -3.2325,-5.12569 -3.79883,-5.31446 -1.45303,-0.48435 -2.83364,2.48994 -12.68359,27.30274 -4.79936,12.09 -15.02622,36.15744 -22.72461,53.48242 -7.69839,17.32498 -14.77891,33.525 -15.73633,36 -7.92787,20.49414 -17.69109,43.33887 -20.21093,47.29297 C 696.31237,878.75156 692.71202,881 687.45117,881 680.17694,881 669,872.9292 669,867.67578 c 0,-2.75134 4.60747,-14.83317 12.46094,-32.67578 2.54187,-5.77499 7.75641,-18.50197 11.58789,-28.2832 10.59667,-27.05185 19.70228,-49.21124 25.97851,-63.2168 2.41724,-5.39409 5.97203,-14.8084 5.97266,-15.81836 9e-4,-1.47109 -3.65886,0.29077 -17.67969,8.50781 -13.98454,8.19579 -24.65196,14.12132 -42.82031,23.78711 -11.58284,6.16222 -19.35267,10.37174 -25,13.54492 -2.2,1.23616 -7.6,4.14971 -12,6.47461 -9.79857,5.17747 -21.32473,11.44689 -28,15.23047 -8.30373,4.70661 -16.77822,8.44662 -20.83203,9.19141 -4.84427,0.89001 -7.73634,-0.87966 -11.73047,-7.17774 C 564.44453,793.30922 564,791.60061 564,785.94141 c 0,-9.44071 0.46349,-9.84486 27.70312,-24.06446 6.48814,-3.38692 15.62188,-8.28606 20.29688,-10.88672 7.76018,-4.31692 40.80008,-21.9049 53.91992,-28.70312 2.98111,-1.5447 5.6027,-3.35693 5.82617,-4.02734 0.3163,-0.94889 -14.69712,-1.2797 -67.76562,-1.49024 L 535.81055,716.5 l -2.42969,-3 c -5.86991,-7.25152 -7.03191,-14.78823 -3.30469,-21.41992 3.93939,-7.0092 -2.28691,-6.5172 90.73438,-7.19141 52.70172,-0.38198 84.67639,-0.97717 85.28711,-1.58789 C 707.12704,682.2714 705.21991,680.82211 692.5,672.96875 666.58262,656.96716 651.85871,648 651.50195,648 c -0.61182,0 -18.528,-10.80262 -40.00195,-24.11914 -1.65,-1.0232 -4.9125,-2.85502 -7.25,-4.07031 -2.3375,-1.21528 -4.25,-2.56936 -4.25,-3.00977 0,-0.4404 -0.44537,-0.80078 -0.99023,-0.80078 -0.54486,0 -6.73237,-3.52826 -13.75,-7.83984 -19.19185,-11.79135 -51.85413,-31.28187 -53.7461,-32.07227 -0.54288,-0.22679 -6.77235,-3.93929 -13.84179,-8.25 C 510.60242,563.52718 504.64205,560 504.42578,560 503.83671,560 474.11102,542.15011 469.5,539.02734 c -2.2,-1.48992 -6.475,-4.05727 -9.5,-5.70312 -6.58018,-3.58017 -21.02809,-12.52155 -29.93359,-18.52539 -4.52379,-3.04981 -6.68752,-5.22188 -7.29102,-7.31836 -0.47202,-1.63972 -0.6304,-24.8055 -0.35156,-51.48047 0.27883,-26.67497 0.52214,-96.60103 0.54101,-155.39062 L 423,193.71875 l 321.42188,0.66992 c 260.57332,0.54302 321.57942,0.42794 322.25002,-0.60937 0.455,-0.70375 0.9736,-13.53109 1.1504,-28.50586 0.3143,-26.63609 0.2641,-27.4498 -2.3028,-37.5 -6.1057,-23.90568 -20.6388,-42.873925 -42.0195,-54.843752 -7.7937,-4.363223 -19.8879,-8.330449 -29,-9.513672 -4.38558,-0.569476 -135.50561,-0.693413 -266.59375,-0.529297 z" />
  </g>
</svg>
